<mxfile host="Electron" agent="Mozilla/5.0 (Windows NT 10.0; Win64; x64) AppleWebKit/537.36 (KHTML, like Gecko) draw.io/24.7.5 Chrome/126.0.6478.183 Electron/31.3.0 Safari/537.36" version="24.7.5">
  <diagram name="第 1 页" id="eWreZTi9JEG_tQmBHk9I">
    <mxGraphModel dx="989" dy="582" grid="1" gridSize="10" guides="1" tooltips="1" connect="1" arrows="1" fold="1" page="1" pageScale="1" pageWidth="827" pageHeight="1169" math="0" shadow="0">
      <root>
        <mxCell id="0" />
        <mxCell id="1" parent="0" />
        <mxCell id="ds7MAcFva-JFDMJMOSIX-3" style="edgeStyle=orthogonalEdgeStyle;rounded=0;orthogonalLoop=1;jettySize=auto;html=1;entryX=0.5;entryY=1;entryDx=0;entryDy=0;" edge="1" parent="1" source="ds7MAcFva-JFDMJMOSIX-1" target="ds7MAcFva-JFDMJMOSIX-2">
          <mxGeometry relative="1" as="geometry" />
        </mxCell>
        <mxCell id="ds7MAcFva-JFDMJMOSIX-4" value="救了" style="edgeLabel;html=1;align=center;verticalAlign=middle;resizable=0;points=[];" vertex="1" connectable="0" parent="ds7MAcFva-JFDMJMOSIX-3">
          <mxGeometry x="0.081" y="-2" relative="1" as="geometry">
            <mxPoint as="offset" />
          </mxGeometry>
        </mxCell>
        <mxCell id="ds7MAcFva-JFDMJMOSIX-1" value="主角（刘寒松）" style="rounded=0;whiteSpace=wrap;html=1;" vertex="1" parent="1">
          <mxGeometry x="460" y="430" width="120" height="60" as="geometry" />
        </mxCell>
        <mxCell id="ds7MAcFva-JFDMJMOSIX-2" value="女主" style="rounded=0;whiteSpace=wrap;html=1;" vertex="1" parent="1">
          <mxGeometry x="460" y="210" width="120" height="60" as="geometry" />
        </mxCell>
        <mxCell id="ds7MAcFva-JFDMJMOSIX-6" style="edgeStyle=orthogonalEdgeStyle;rounded=0;orthogonalLoop=1;jettySize=auto;html=1;entryX=0;entryY=0.5;entryDx=0;entryDy=0;" edge="1" parent="1" source="ds7MAcFva-JFDMJMOSIX-5" target="ds7MAcFva-JFDMJMOSIX-1">
          <mxGeometry relative="1" as="geometry" />
        </mxCell>
        <mxCell id="ds7MAcFva-JFDMJMOSIX-7" value="欺负" style="edgeLabel;html=1;align=center;verticalAlign=middle;resizable=0;points=[];" vertex="1" connectable="0" parent="ds7MAcFva-JFDMJMOSIX-6">
          <mxGeometry x="-0.0294" y="-1" relative="1" as="geometry">
            <mxPoint as="offset" />
          </mxGeometry>
        </mxCell>
        <mxCell id="ds7MAcFva-JFDMJMOSIX-5" value="张豪" style="rounded=0;whiteSpace=wrap;html=1;" vertex="1" parent="1">
          <mxGeometry x="220" y="430" width="90" height="60" as="geometry" />
        </mxCell>
      </root>
    </mxGraphModel>
  </diagram>
</mxfile>
